<svg id="mythology" enable-background="new 0 0 100 100" viewBox="0 0 100 100"><path d="M52.7,87.9v2h-19c0-5.8,2.5-11.2,7-15c3.4-2.8,5.5-6.8,6-11.2c7.9-0.9,14.1-7.7,14.1-15.9c0-3.4-1.1-6.7-3.1-9.5
	c-0.7-0.9-1.9-1.1-2.8-0.4c-0.9,0.7-1.1,1.9-0.4,2.8c1.5,2.1,2.3,4.5,2.3,7.1c0,6.6-5.4,12-12,12c-2.6,0-5-0.8-7.1-2.3
	c-0.8-0.6-1.9-0.5-2.6,0.2l-8.9,8.9c-1.2,1.2-2.7,1.8-4.3,1.8c-1.6,0-3.2-0.7-4.3-1.9L11,59.6c-2.1-2.2-2.2-5.6-0.3-7.9l21.6-26.6
	c0.4-0.5,0.5-1.1,0.4-1.6c-0.1-0.6-0.5-1.1-1-1.4c-3.1-1.8-3.5-7.6-3.3-12.1c3.4,3.6,9.6,8.6,18.9,10.2c19.2,2.6,30.5,13.1,34.4,32
	c1,4.8,1.3,9.2,0.8,13.6h-7.9C62.6,65.9,52.7,75.8,52.7,87.9z M74.7,69.9c-9.9,0-18,8.1-18,18v2h15c4.4,0,8-3.6,8-8v-2
	c0-1.1,0.9-2,2-2h1c4.4,0,8-3.6,8-8H74.7z"/></svg>